<svg id="Layer_1" data-name="Layer 1" xmlns="http://www.w3.org/2000/svg" xmlns:xlink="http://www.w3.org/1999/xlink" viewBox="0 0 109.62 92.35"><defs><style>.cls-1{fill:url(#linear-gradient);}.cls-18,.cls-2{fill:#b7ab53;}.cls-3{fill:#716836;}.cls-4{fill:#e9aa8c;}.cls-5{fill:#aba26d;}.cls-10,.cls-6{fill:#fff;}.cls-7{fill:#eae3e6;}.cls-8{fill:#30aad6;}.cls-9{fill:#196985;}.cls-10{opacity:0.6;}.cls-10,.cls-18{isolation:isolate;}.cls-11{fill:#efc19e;}.cls-12{fill:#452c24;}.cls-13{fill:url(#linear-gradient-2);}.cls-14{fill:#efbe99;}.cls-15{fill:#ed6d26;}.cls-16{fill:#dbcc83;}.cls-17{fill:#968b48;}.cls-18{opacity:0.51;}</style><linearGradient id="linear-gradient" x1="74.54" y1="95.53" x2="74.54" y2="35.89" gradientTransform="matrix(1, 0, 0, -1, -15.05, 138)" gradientUnits="userSpaceOnUse"><stop offset="0" stop-color="#fbdbbe"/><stop offset="0.75" stop-color="#fbdbbe"/><stop offset="1" stop-color="#f9cdae"/></linearGradient><linearGradient id="linear-gradient-2" x1="40.4" y1="62.5" x2="28.91" y2="62.62" gradientTransform="matrix(1, 0, 0, -1, -15.05, 138)" gradientUnits="userSpaceOnUse"><stop offset="0" stop-color="#fbdbbe"/><stop offset="0.68" stop-color="#fbdbbe"/><stop offset="1" stop-color="#facfaf"/></linearGradient></defs><title>Justin-head</title><path class="cls-1" d="M24.84,79.6c1,9.85,6.55,25.7,24.3,26.25,18.1,0.6,11.65,1.15,24.3.55,12.9-.6,19.05-6.2,22.55-31,0,0,3.4-19.55,3.9-27.05,0,0-7.8-15.9-47.1-16-28.8-.1-33.7,13.85-33.7,13.85S24,71.85,24.84,79.6Z" transform="translate(-13.68 -14.74)"/><path class="cls-2" d="M95.84,52.4s-1.2,9.2.4,10.15,1.35,1.1,1.35,1.1l-1.9,13,2.45-1.5L103,49.85Z" transform="translate(-13.68 -14.74)"/><path class="cls-3" d="M95.69,37.5s9,2.85,14.65-1.6c0,0-1.15,5-3.9,5.3C106.44,41.15,97.84,41.7,95.69,37.5Z" transform="translate(-13.68 -14.74)"/><path class="cls-4" d="M69.19,82c0.1,0.1,3.65,1.7,3.65,1.7s-1.05,2.2-2.65,2.2c0,0,1.9-1.45,1.2-1.95A21.62,21.62,0,0,1,69.19,82Z" transform="translate(-13.68 -14.74)"/><path class="cls-5" d="M58.59,62.55l0.55-2.7a10.68,10.68,0,0,0-13.05-1.3s0.6,4.15,1.05,4c0.95-.3,4.35-2.25,8.05-1.45A6.67,6.67,0,0,1,58.59,62.55Z" transform="translate(-13.68 -14.74)"/><path class="cls-6" d="M45,79.65s-0.75-10.9,4.5-12.2c4.65-1.2,9.15,0,9.95,3.9a35.83,35.83,0,0,1,.5,8.3S49.94,81.95,45,79.65Z" transform="translate(-13.68 -14.74)"/><path class="cls-7" d="M46.19,70.8s3.9-3.8,7.1-3.3a9.65,9.65,0,0,1,6.3,4.3,4.69,4.69,0,0,0-.9-2.35c-0.9-1.35-3.95-3.1-7.2-2.8S46.34,70.3,46.19,70.8Z" transform="translate(-13.68 -14.74)"/><path class="cls-8" d="M53.19,67a3.45,3.45,0,0,1,3,3.2c0.45,3.65.5,10.4-1.9,10.45-2.55.05-5.85,0.7-6.5-.3-1.65-2.4.05-11.2,0.4-11.5A6.87,6.87,0,0,1,53.19,67Z" transform="translate(-13.68 -14.74)"/><ellipse class="cls-9" cx="38.12" cy="59.11" rx="2.25" ry="4.4"/><path class="cls-6" d="M49.79,67.7s1.65,3.25,1.15,3.65-2.85-2.5-2.85-2.5a6.57,6.57,0,0,1,.7-0.6A8.53,8.53,0,0,1,49.79,67.7Z" transform="translate(-13.68 -14.74)"/><path class="cls-10" d="M55.44,79.8s-1.4-3.4-2.85-2.1c-0.55.5-.25,2.65,0,2.85a5.07,5.07,0,0,0,2.15,0A1.86,1.86,0,0,0,55.44,79.8Z" transform="translate(-13.68 -14.74)"/><path class="cls-11" d="M45,79.65a19.86,19.86,0,0,0,7.5,1,58.38,58.38,0,0,0,7.5-1.3,6.08,6.08,0,0,0,1.35,0,24.81,24.81,0,0,1-8.85,2.15A13.45,13.45,0,0,1,45,79.65Z" transform="translate(-13.68 -14.74)"/><path class="cls-12" d="M59,69.55c-0.1-.25-0.2-0.45-0.25-0.55a1.78,1.78,0,0,0-.2-0.45V68.5h0c-0.8-1.7-2.35-3.05-5.8-2.8-4.95.35-6.65,5.1-6.65,5.1s2.65-3.6,6.6-3.7c2.45-.05,4.95,1.15,5.5,2.55a26.75,26.75,0,0,1,1.7,9.6C59.94,79.25,60.34,72.8,59,69.55Z" transform="translate(-13.68 -14.74)"/><path class="cls-5" d="M78.09,62.55l-0.5-2.7s4.85-5.7,11.45-1.3c0,0-.5,4.15-0.95,4-0.85-.3-3.8-2.25-7.05-1.45A5.94,5.94,0,0,0,78.09,62.55Z" transform="translate(-13.68 -14.74)"/><path class="cls-6" d="M77,79.65s-0.65-10.9,3.95-12.2c4.05-1.2,8,0,8.7,3.9a41.39,41.39,0,0,1,.45,8.3S81.34,81.95,77,79.65Z" transform="translate(-13.68 -14.74)"/><path class="cls-7" d="M78,70.8s3.4-3.8,6.2-3.3a8.47,8.47,0,0,1,5.5,4.3,5.09,5.09,0,0,0-.8-2.35,7.17,7.17,0,0,0-6.3-2.8C79.84,67,78.19,70.3,78,70.8Z" transform="translate(-13.68 -14.74)"/><path class="cls-8" d="M83.79,67s2.3,0.2,2.6,3.2c0.4,3.65.4,10.4-1.65,10.45-2.25.05-5.1,0.65-5.65-.35-1.4-2.4.05-11.15,0.3-11.45A5.93,5.93,0,0,1,83.79,67Z" transform="translate(-13.68 -14.74)"/><ellipse class="cls-9" cx="69.02" cy="59.11" rx="1.95" ry="4.4"/><path class="cls-6" d="M80.94,67.7s1.45,3.25,1.05,3.65-2.5-2.5-2.5-2.5a6,6,0,0,1,.6-0.6A3.81,3.81,0,0,1,80.94,67.7Z" transform="translate(-13.68 -14.74)"/><path class="cls-10" d="M85.84,79.8s-1.25-3.4-2.5-2.1c-0.5.5-.2,2.65,0,2.85a4,4,0,0,0,1.9,0A1.61,1.61,0,0,0,85.84,79.8Z" transform="translate(-13.68 -14.74)"/><path class="cls-11" d="M77,79.65a15.46,15.46,0,0,0,6.55,1,46.07,46.07,0,0,0,6.6-1.3,4.8,4.8,0,0,0,1.2,0,19.82,19.82,0,0,1-7.8,2.15A10.71,10.71,0,0,1,77,79.65Z" transform="translate(-13.68 -14.74)"/><path class="cls-12" d="M89.29,69.55c-0.1-.25-0.15-0.45-0.2-0.55l-0.15-.45V68.5h0c-0.7-1.7-2.05-3.05-5.05-2.8C79.54,66,78,70.8,78,70.8s2.35-3.6,5.75-3.7c2.15-.05,4.35,1.15,4.85,2.55a30.26,30.26,0,0,1,1.5,9.6C90.09,79.25,90.44,72.8,89.29,69.55Z" transform="translate(-13.68 -14.74)"/><path class="cls-2" d="M104,37.2c-6.1-6-12.7-14.65-16.15-17.1s-14.9-8.8-25.45-3a177.61,177.61,0,0,0-16.85,10.5s-2.2-5.25-.35-7.6c0,0-7.2,4.4-5.6,10.75,0,0-5.25-3.65-8.9-2,0,0,5,1.85,5.15,3.4,0,0-9.3,4.5-12.6,4.5s-7.1,10.15-7.2,10.75v0.1l1.9,18a23.81,23.81,0,0,1,4.55.3c1.85,5.1,3.4,9.25,3.4,9.25l6.15,2.95,0.7-18.5a4.3,4.3,0,0,0,3.05-1.85c0.85-1.6,1.1-10.4,2.1-10.75a33.67,33.67,0,0,1,5.4-.35c0.35-.25,3.05-4.15,6-2.8S72.19,58.9,88.59,56.3s30.2-12,34.7-15.15C123.19,41.25,110.19,43.2,104,37.2Z" transform="translate(-13.68 -14.74)"/><path class="cls-13" d="M23.74,65.1s-5.05-1.75-8.3,1.45S13.34,79.6,18.29,82.3a54.79,54.79,0,0,0,9.5,4.05Z" transform="translate(-13.68 -14.74)"/><path class="cls-14" d="M24.74,70s-2.65-.9-4.4.75-1.1,6.9,1.5,8.3a31.92,31.92,0,0,0,5,2.15Z" transform="translate(-13.68 -14.74)"/><path class="cls-15" d="M58.49,90.2S64.54,93.5,71,93.15a13.85,13.85,0,0,1-7.55.05A12.86,12.86,0,0,1,58.49,90.2Z" transform="translate(-13.68 -14.74)"/><polygon class="cls-16" points="58.52 4.21 78.52 10.76 63.77 9.61 60.87 16.01 54.27 12.21 54.02 18.16 47.52 15.81 46.87 20.86 45.67 25.86 39.52 14.51 43.82 16.86 43.27 9.86 51.87 12.11 49.27 6.56 58.07 12.11 58.52 4.21"/><path class="cls-17" d="M47.69,40.7c-4.4-.85-4.9,4.2-4.9,4.2s-3.6-1.1-5.6-.5-0.35,7.75-.35,7.75h0c0.3-2.5.6-4.85,1.1-5.05a33.67,33.67,0,0,1,5.4-.35c0.35-.25,3.05-4.15,6-2.8S72.19,59,88.59,56.4c16-2.5,29.6-11.6,34.4-14.95C88.74,61.8,52.09,41.55,47.69,40.7Z" transform="translate(-13.68 -14.74)"/><path class="cls-18" d="M39.07,93.91c1.3,0.8,3.65.8,8.4,0.8,3.7,0,4.2-.2,4.65-0.6,1.8-1.55.3-4.3,2.2-6.15,0.85-.8,2.25-0.95,5.15-1.2a48.26,48.26,0,0,1,7.2.2c3.15,0.2,4.4.3,5.9,1.05A4.63,4.63,0,0,1,75,90.16c0.45,1.1-.1,1.65.15,3.4,0.1,0.95.3,2.6,1.45,3.45,0.95,0.75,2.2.6,4.7,0.25a27.07,27.07,0,0,0,3.9-.9,11.38,11.38,0,0,0,4-1.95,9.73,9.73,0,0,0,2.55-2.9c0.6-.95,1.2-1.9,1.8-2.8A41.43,41.43,0,0,1,91.52,95a32.08,32.08,0,0,1-1.8,3.5,20.48,20.48,0,0,1-1.45,2.1,14.89,14.89,0,0,1-2.15,2.3,12.39,12.39,0,0,1-2.9,1.75,26.06,26.06,0,0,1-2.75,1.2,17.78,17.78,0,0,1-3.2.75c-0.6.05-1.2,0.15-1.8,0.2l-6.2.3c-2.05.05-3.75,0.05-5.05,0s-1.95-.1-3.75-0.25c-2-.1-3.7-0.2-4.95-0.25-0.55-.05-1.3-0.1-2.3-0.15s-1.6,0-1.85,0a31.39,31.39,0,0,1-6.95-.6,23.08,23.08,0,0,1-4.25-1.4,33.1,33.1,0,0,1-3.45-1.8,21.1,21.1,0,0,1-4.4-3.75,18.75,18.75,0,0,1-1.7-2.3,27.59,27.59,0,0,1-2.05-3.4c-0.7-1.35-1.1-2.45-1.45-3.25-0.4-1.05-.85-2.35-1.25-3.8a11.25,11.25,0,0,0,.9-4.65,25.63,25.63,0,0,0-.55-3.25c-0.25-1.15-.55-2.8-0.8-4.9,4.2,1.55,5.85,3.55,6.65,5.2,0.5,1.05.35,1.4,1.4,4.75a31.53,31.53,0,0,0,1.95,5.3C36.62,91.21,37.47,92.81,39.07,93.91Z" transform="translate(-13.68 -14.74)"/></svg>