<?xml version="1.0" encoding="utf-8"?>
<!-- Generator: Adobe Illustrator 19.1.0, SVG Export Plug-In . SVG Version: 6.00 Build 0)  -->
<svg version="1.1" id="Layer_1" xmlns="http://www.w3.org/2000/svg" xmlns:xlink="http://www.w3.org/1999/xlink" x="0px" y="0px"
	 viewBox="-344 78 270.7 406" style="enable-background:new -344 78 270.7 406;" xml:space="preserve">
<style type="text/css">
	.st0{opacity:0.13;fill:url(#SVGID_1_);enable-background:new    ;}
	.st1{fill:#3E3A39;}
	.st2{fill:#352F2D;}
	.st3{fill:#322B29;}
	.st4{fill:#FFFFFF;}
	.st5{fill:#C7C8C8;}
	.st6{fill:#2B2625;}
	.st7{fill:url(#SVGID_2_);}
	.st8{fill:#413D3C;}
	.st9{fill:#5E5D5C;}
	.st10{fill:#39A6DF;}
	.st11{fill:#78B3E2;}
	.st12{fill:#0095DB;}
	.st13{fill:#F2F2F3;}
	.st14{fill:url(#SVGID_3_);}
	.st15{fill:#B7AB53;}
	.st16{fill:#716836;}
	.st17{fill:#E9AA8C;}
	.st18{fill:#ABA26D;}
	.st19{fill:#EAE3E6;}
	.st20{fill:#30AAD6;}
	.st21{fill:#196985;}
	.st22{opacity:0.6;fill:#FFFFFF;enable-background:new    ;}
	.st23{fill:#EFC19E;}
	.st24{fill:#452C24;}
	.st25{fill:url(#SVGID_4_);}
	.st26{fill:#EFBE99;}
	.st27{fill:#ED6D26;}
	.st28{fill:#DBCC83;}
	.st29{fill:#968B48;}
	.st30{opacity:0.55;fill:#33302F;enable-background:new    ;}
	.st31{fill:#918E8D;}
	.st32{fill:#33302F;}
	.st33{fill:url(#SVGID_5_);}
	.st34{fill:#F1F1F2;}
	.st35{fill:#FBDBBE;}
	.st36{fill:#F6BC96;}
	.st37{fill:#FAD1B0;}
	.st38{opacity:0.51;fill:#B7AB53;enable-background:new    ;}
</style>
<radialGradient id="SVGID_1_" cx="-5076.0415" cy="32609.957" r="121.573" gradientTransform="matrix(-1 0 0 0.2165 -5284.6914 -6609.8999)" gradientUnits="userSpaceOnUse">
	<stop  offset="0" style="stop-color:#000000"/>
	<stop  offset="0.1205" style="stop-color:#040404"/>
	<stop  offset="0.2454" style="stop-color:#111111"/>
	<stop  offset="0.3724" style="stop-color:#252525"/>
	<stop  offset="0.5008" style="stop-color:#434343"/>
	<stop  offset="0.6304" style="stop-color:#686868"/>
	<stop  offset="0.761" style="stop-color:#969696"/>
	<stop  offset="0.8898" style="stop-color:#CBCBCB"/>
	<stop  offset="1" style="stop-color:#FFFFFF"/>
</radialGradient>
<ellipse class="st0" cx="-208.6" cy="450.2" rx="135.4" ry="33.8"/>
<g>
	<path class="st1" d="M-190.1,442.7l-1.2,2.1c0,0-20.7-1.3-22.7,6.8s5.5,8.5,9.3,9.5s20.4,0,24.5-1.4c4-1.4,7.7-3.6,7.7-3.6
		s7.5,1,9.2-0.6c0,0,2.1-3.6,0.9-10.9c-0.3-1.8-0.3-1.8-0.3-1.8s-6.8,4.3-10.5,3.7C-176.9,446-171.9,446.8-190.1,442.7z"/>
	<path class="st2" d="M-174,452.1c-0.5,0.5-8.6,6.1-22.1,5.4c-10.9-0.5-14.6-6.7-15.8-9.1c-0.9,0.8-1.9,2.1-2.2,3.2
		c-2,8.1,5.5,8.5,9.3,9.5s20.4,0,24.5-1.4c4-1.4,7.7-3.6,7.7-3.6s7.5,1,9.2-0.6c0,0,1.1-3,1.2-6.6
		C-164.6,451.9-173.5,451.6-174,452.1z"/>
	<path class="st3" d="M-162.5,444.6c-0.3-1.8-0.3-1.8-0.3-1.8s-6.8,4.3-10.5,3.7c-3.5-0.5,1.5,0.3-16.9-3.7l-1.2,2.1
		c0,0-1.2-0.1-3-0.1c2,2,7.5,6.7,13.4,6.4c7.5-0.3,7.6-1,8.3-1c0.6,0,10.5,2.9,10.4-1.9C-162.1,447.3-162.3,445.7-162.5,444.6z"/>
	<path class="st2" d="M-165.6,348.6c-14.4-0.2-33.4,3.4-33.4,3.4l-0.7,44.1c0,0,3.3,10.2,6.7,16.2c0.8,1.4,0.5,5.8,1.3,7.4
		c0.8,1.6,2.6,8.5,1.8,10.1s-4.2,12.7-4.2,12.7s21.4,9.4,31.9,2c5.5-3.8,5.7-5.9,5.7-5.9l-3.6-11.9c0,0-0.8-35.4-0.7-36.8
		L-165.6,348.6z"/>
</g>
<g>
	<path class="st1" d="M-227.3,432l-1.2,2.1c0,0-20.7-1.3-22.7,6.8s5.5,8.5,9.3,9.5s20.4,0,24.5-1.4c4-1.4,7.7-3.6,7.7-3.6
		s7.5,1,9.2-0.6c0,0,2.1-3.6,0.9-10.9c-0.3-1.8-0.3-1.8-0.3-1.8s-6.8,4.3-10.5,3.7C-213.9,435.2-208.9,436-227.3,432z"/>
	<path class="st2" d="M-211,441.4c-0.5,0.5-8.6,6.1-22.1,5.4c-10.9-0.5-14.6-6.7-15.8-9.1c-0.9,0.8-1.9,2.1-2.2,3.2
		c-2,8.1,5.5,8.5,9.3,9.5s20.4,0,24.5-1.4c4-1.4,7.7-3.6,7.7-3.6s7.5,1,9.2-0.6c0,0,1.1-3,1.2-6.6
		C-201.8,441.2-210.6,440.9-211,441.4z"/>
	<path class="st3" d="M-199.6,433.8c-0.3-1.8-0.3-1.8-0.3-1.8s-6.8,4.3-10.5,3.7c-3.5-0.5,1.5,0.3-16.9-3.7l-1.2,2.1
		c0,0-1.2-0.1-3-0.1c2,2,7.5,6.7,13.4,6.4c7.5-0.3,7.6-1,8.3-1c0.6,0,10.5,2.9,10.4-1.9C-199.1,436.6-199.4,435-199.6,433.8z"/>
	<path class="st2" d="M-202.8,337.9c-14.4-0.2-33.4,3.4-33.4,3.4l-0.7,44.1c0,0,3.3,10.2,6.7,16.2c0.8,1.4,0.5,5.8,1.3,7.4
		c0.8,1.6,2.6,8.5,1.8,10.1s-4.2,12.7-4.2,12.7s21.4,9.4,31.9,2c5.5-3.8,5.7-5.9,5.7-5.9l-3.6-11.9c0,0-0.8-35.4-0.7-36.8
		L-202.8,337.9z"/>
</g>
<path class="st4" d="M-216.5,266.6c0,0-9.3,17.4-9.6,32.4s1.8,65.4-1.8,68.4s15.9,7.6,26.8,9.4c10.9,1.8,24,0.8,25.3,0
	c0,0-9.9-79.5-6.8-88.2c3-8.6,2.3-29.9,2.3-29.9S-193.5,284.5-216.5,266.6z"/>
<path class="st5" d="M-206.3,293.4c0,0,0.7,40.4,6.6,55.6l2.6,2.8c0,0-7.2,1.2-7.2-59L-206.3,293.4z"/>
<path class="st2" d="M-201.6,345.1c-18.1-0.5-38.9-8.1-38.9-8.1s-9.9,38,37.4,41.7c47.2,3.7,47.7-9.1,49.4-36.8
	C-153.6,341.9-183.6,345.6-201.6,345.1z"/>
<path class="st6" d="M-216.6,278.3c0,0-4.7,41.1-5.1,45.9c-1.8,20.6,1.6,41.7,2,48.4s2.1,12.2,3,12.4l-4.6-1c0,0-4.2-27.3-0.6-65.9
	C-220.6,304.2-218.1,290.3-216.6,278.3z"/>
<path class="st6" d="M-188.3,343.6c0.1,0.4,2,31.3,2.1,34.9c0.2,3.6,1.4,7.1,1.4,7.1l3.5-0.4L-188.3,343.6z"/>
<linearGradient id="SVGID_2_" gradientUnits="userSpaceOnUse" x1="-541.8866" y1="247.9683" x2="-540.938" y2="253.9761" gradientTransform="matrix(1 0 0 1 341.127 8)">
	<stop  offset="0.2381" style="stop-color:#F7BFA2"/>
	<stop  offset="1" style="stop-color:#FAD3B1"/>
</linearGradient>
<path class="st7" d="M-215.9,253.8c0,0,26.2,1.2,29.6,0c0,0-2,20.8-16,20.4C-214.6,274-215.9,253.8-215.9,253.8z"/>
<path class="st1" d="M-175.3,258.3c0,0,16.1,4.2,16.3,6c0.1,1.8,15.8,85.8,15.8,85.8l7.7,12.9c0,0-0.8,6-5.6,8.8
	c-14.9,8.6-33,17.6-41.8,14.6c0,0-6.8-29.1-5.1-56.3C-186.4,302.8-175.3,258.3-175.3,258.3z"/>
<polygon class="st2" points="-168.3,330.3 -149.9,347.2 -149.8,349.6 "/>
<path class="st8" d="M-168.5,330.5l-3.2,4.8c0,0,20.2,18.4,20.9,21.5c0.3-0.1,2.6-5.6,2.6-5.6L-168.5,330.5z"/>
<path class="st2" d="M-243.3,334c0,0-1.9-2.2-4.5-2.5v-0.4c0,0,3.4,0.1,4.5,3"/>
<path class="st2" d="M-239.6,266.4c0,0-1.4,2.7-2.1,14.5c-0.3,4.8-0.8,6.9-0.8,6.9s1.6-3.2,1.8-8.9c0.2-5.7,0.8-10.3,1.7-10.8
	L-239.6,266.4z"/>
<path class="st1" d="M-216.8,274.6l-7-15.7c0,0-12.3,1.1-15.9,7.5l0,0c0,0-12.6,4.6-14.3,15.4s6.2,64.9,6.2,64.9l-4.3,9.9
	c0,0-5.2,9.5-5,11c0.3,1.4,27.1,19.1,37.6,18.2C-219.5,385.6-226.3,344.5-216.8,274.6z"/>
<g>
	<path class="st2" d="M-164.1,264.3c0.3,0,3.9,1.7,3.9,1.7s-27.3,61.9-27.8,72.7l0.4-13.3L-164.1,264.3z"/>
	<path class="st9" d="M-181.5,255.2c-4.5,10.8-6.1,68.3-6.5,74.8c1.3-11.5,27.1-70.2,27.1-70.2L-181.5,255.2z"/>
	<path class="st2" d="M-238.9,266c0,0-1.7,4.6-1.7,5.1c0.2,2.4,17.7,56.3,18.2,63.3l1-15L-238.9,266z"/>
	<path class="st9" d="M-220,253.8l-21.2,8.3c0,0,19.8,53.5,19.2,66.7c0,0,3.8-50.5,7.9-61.1L-220,253.8z"/>
	<path class="st5" d="M-220,269.4c0,0,2.3,11.8,5.1,11.4s7.4-7.9,8.3-8.8c0,0-13.7-13-17.4-15.3C-224.5,256.5-219.6,269.9-220,269.4
		z"/>
	<path class="st5" d="M-196.5,274c0.2,0.1,5,8.4,8,7.8s10.2-22.5,10-23.6s-2-1.3-2-1.3s-7,21.5-9.2,20.6c-2.3-0.8-5.8-4.5-5.8-4.5
		L-196.5,274z"/>
	<g>
		<path class="st10" d="M-204.4,269.4c0,0,2.4,0.8,6,0l3.9,4.3c0,0-4.4,5.1-5.4,6c-0.8,0.8-1.7,0.6-2.6,0c-0.9-0.6-5.6-6.7-5.6-6.7
			L-204.4,269.4z"/>
		<path class="st11" d="M-197.5,270.4c0,0,2.8,2.9,2.8,3.2s-3.7,4.1-4.1,4.5C-199.3,278.5-197.5,270.4-197.5,270.4z"/>
		<path class="st10" d="M-202.8,279.2c0,0-3,7-5.2,12.8c-2.1,5.5-6.4,22.1-6.8,22.5c-0.4,0.4-4.1,5.3-5.3,5.1c0,0,3,5.8,5.7,10.8
			c0.6,1.2,1.8,1,2.9,0c1.2-1,7.1-6.6,8.6-9.9c0,0,2.5-28.2,2.6-41.2C-200.1,279.2-201,280.1-202.8,279.2z"/>
		<path class="st12" d="M-213.3,309.8c0,0-1.4,4.6-2.6,6s-2.9,3.9-4.2,3.7c0,0,6.7,7.3,7.1,3.7
			C-212.8,321.5-213.4,310.1-213.3,309.8z"/>
		<path class="st12" d="M-202.8,279.2c0,0,1.2,0.9,1.9,0.5s0.8,0.1,0.8,0.1s-1.1,1-2,1.1c-1,0.1-1.2-0.4-1.2-0.4L-202.8,279.2z"/>
	</g>
	<polygon class="st13" points="-186.6,251.4 -198.5,266.4 -202,269.4 -205.5,266.4 -205.5,266.4 -216.3,251.4 -224.4,256.3 
		-214.6,280.1 -204,269.4 -201.9,272.2 -199.5,269.4 -189.3,280.5 -181.1,262.1 -179.6,256.3 	"/>
</g>
<path class="st8" d="M-248.3,337.6c0,0,4.5-4.2,5.2-3.5c0,0-2.5-2.7-4.6-2.6l-1.2,4.9L-248.3,337.6z"/>
<path class="st4" d="M-187.8,296.8c0,6.1-1.2,13-2.9,18.2c-0.4-1-5.1,1.2-6.5,1.2c-3.6,0-2-17.6-2.2-18.5
	C-198.1,294.3-190.5,296-187.8,296.8z"/>
<g>
	
		<linearGradient id="SVGID_3_" gradientUnits="userSpaceOnUse" x1="-190.3974" y1="125.5378" x2="-190.3974" y2="244.8262" gradientTransform="matrix(1 0 0 1 -15.0527 8)">
		<stop  offset="0" style="stop-color:#FBDBBE"/>
		<stop  offset="0.746" style="stop-color:#FBDBBE"/>
		<stop  offset="1" style="stop-color:#F9CDAE"/>
	</linearGradient>
	<path class="st14" d="M-274.8,207.8c2,19.7,13.1,51.4,48.6,52.5c36.2,1.2,23.3,2.3,48.6,1.1c25.8-1.2,38.1-12.4,45.1-62
		c0,0,6.8-39.1,7.8-54.1c0,0-15.6-31.8-94.2-31.9c-57.6-0.2-67.4,27.7-67.4,27.7S-276.4,192.3-274.8,207.8z"/>
	<path class="st15" d="M-132.8,153.4c0,0-2.4,18.4,0.8,20.3c3.2,2,2.7,2.2,2.7,2.2l-3.8,26l4.9-3l9.7-50.6L-132.8,153.4z"/>
	<path class="st16" d="M-133.1,123.6c0,0,17.9,5.7,29.3-3.2c0,0-2.3,10.1-7.8,10.6C-111.6,130.9-128.8,132-133.1,123.6z"/>
	<path class="st17" d="M-186.1,212.7c0.2,0.2,7.3,3.4,7.3,3.4s-2.1,4.4-5.3,4.4c0,0,3.8-2.9,2.4-3.9
		C-183.1,215.7-186.1,212.7-186.1,212.7z"/>
	<path class="st18" d="M-207.3,173.7l1.1-5.4c0,0-11.1-11.4-26.1-2.6c0,0,1.2,8.3,2.1,8c1.9-0.6,8.7-4.5,16.1-2.9
		C-209.1,171.8-207.3,173.7-207.3,173.7z"/>
	<path class="st4" d="M-234.5,207.9c0,0-1.5-21.8,9-24.4c9.3-2.4,18.3,0,19.9,7.8s1,16.6,1,16.6S-224.6,212.5-234.5,207.9z"/>
	<path class="st19" d="M-232.1,190.2c0,0,7.8-7.6,14.2-6.6c5.4,0.8,9.8,4.5,12.6,8.6c0,0,0-2-1.8-4.7s-7.9-6.2-14.4-5.6
		C-228.1,182.6-231.8,189.2-232.1,190.2z"/>
	<g>
		<path class="st20" d="M-218.1,182.6c0,0,5.2,0.4,6,6.4c0.9,7.3,1,20.8-3.8,20.9c-5.1,0.1-11.7,1.4-13-0.6
			c-3.3-4.8,0.1-22.4,0.8-23C-227.6,185.8-224.6,182.7-218.1,182.6z"/>
		<ellipse class="st21" cx="-220.9" cy="196.3" rx="4.5" ry="8.8"/>
		<path class="st4" d="M-224.9,184c0,0,3.3,6.5,2.3,7.3c-1,0.7-5.7-5-5.7-5s0.7-0.7,1.4-1.2C-225.8,184.4-224.9,184-224.9,184z"/>
		<path class="st22" d="M-213.6,208.2c0,0-2.8-6.8-5.7-4.2c-1.1,1-0.5,5.3,0,5.7c0,0,3.4,0.6,4.3,0
			C-214,209.1-213.6,208.2-213.6,208.2z"/>
	</g>
	<path class="st23" d="M-234.5,207.9c0,0,7.5,2.7,15,2c7.4-0.7,15-2.6,15-2.6s2.5,0.2,2.7,0c0.1-0.1-8.4,4.1-17.7,4.3
		C-228.9,211.8-234.5,207.9-234.5,207.9z"/>
	<path class="st24" d="M-206.5,187.7c-0.2-0.5-0.4-0.9-0.5-1.1c-0.1-0.3-0.2-0.6-0.4-0.9c0-0.1,0-0.1,0-0.1l0,0
		c-1.6-3.4-4.7-6.1-11.6-5.6c-9.9,0.7-13.3,10.2-13.3,10.2s5.3-7.2,13.2-7.4c4.9-0.1,9.9,2.3,11,5.1c0,0,3.2,7.2,3.4,19.2
		C-204.6,207.1-203.8,194.2-206.5,187.7z"/>
	<path class="st18" d="M-168.3,173.7l-1-5.4c0,0,9.7-11.4,22.9-2.6c0,0-1,8.3-1.9,8c-1.7-0.6-7.6-4.5-14.1-2.9
		C-166.6,171.8-168.3,173.7-168.3,173.7z"/>
	<path class="st4" d="M-170.5,207.9c0,0-1.3-21.8,7.9-24.4c8.1-2.4,16,0,17.4,7.8s0.9,16.6,0.9,16.6S-161.8,212.5-170.5,207.9z"/>
	<path class="st19" d="M-168.5,190.2c0,0,6.8-7.6,12.4-6.6c4.7,0.8,8.6,4.5,11,8.6c0,0,0-2-1.6-4.7s-7-6.2-12.6-5.6
		C-164.8,182.6-168.1,189.2-168.5,190.2z"/>
	<g>
		<path class="st20" d="M-156.9,182.6c0,0,4.6,0.4,5.2,6.4c0.8,7.3,0.8,20.8-3.3,20.9c-4.5,0.1-10.2,1.3-11.3-0.7
			c-2.8-4.8,0.1-22.3,0.6-22.9C-165.1,185.8-162.6,182.7-156.9,182.6z"/>
		<ellipse class="st21" cx="-159.1" cy="196.3" rx="3.9" ry="8.8"/>
		<path class="st4" d="M-162.6,184c0,0,2.9,6.5,2.1,7.3c-0.9,0.7-5-5-5-5s0.6-0.7,1.2-1.2C-163.5,184.4-162.6,184-162.6,184z"/>
		<path class="st22" d="M-152.8,208.2c0,0-2.5-6.8-5-4.2c-1,1-0.4,5.3,0,5.7c0,0,3,0.6,3.8,0C-153.1,209.1-152.8,208.2-152.8,208.2z
			"/>
	</g>
	<path class="st23" d="M-170.5,207.9c0,0,6.6,2.7,13.1,2s13.2-2.6,13.2-2.6s2.2,0.2,2.4,0c0.1-0.1-7.4,4.1-15.6,4.3
		C-165.6,211.8-170.5,207.9-170.5,207.9z"/>
	<path class="st24" d="M-145.9,187.7c-0.2-0.5-0.3-0.9-0.4-1.1c-0.1-0.3-0.2-0.6-0.3-0.9c0-0.1,0-0.1,0-0.1l0,0
		c-1.4-3.4-4.1-6.1-10.1-5.6c-8.7,0.7-11.7,10.2-11.7,10.2s4.7-7.2,11.5-7.4c4.3-0.1,8.7,2.3,9.7,5.1c0,0,2.8,7.2,3,19.2
		C-144.3,207.1-143.6,194.2-145.9,187.7z"/>
	<path class="st15" d="M-116.4,123c-12.2-12-25.4-29.3-32.3-34.2c-6.8-4.9-29.8-17.6-50.9-5.9c-21,11.7-33.7,21-33.7,21
		s-4.4-10.5-0.7-15.2c0,0-14.4,8.8-11.2,21.5c0,0-10.5-7.3-17.8-3.9c0,0,10,3.7,10.3,6.8c0,0-18.6,9-25.2,9s-14.2,20.3-14.4,21.5
		c0,0,0,0.1,0,0.2l3.8,36c0,0,4.6-0.2,9.1,0.6c3.7,10.2,6.8,18.5,6.8,18.5l12.3,5.9l1.4-37c0,0,4.4-0.5,6.1-3.7
		c1.7-3.2,2.2-20.8,4.2-21.5s10.8-0.7,10.8-0.7c0.7-0.5,6.1-8.3,12-5.6s45.7,30.1,78.5,24.9c32.8-5.1,60.4-24,69.4-30.3
		C-78.1,131.1-104.1,135-116.4,123z"/>
	
		<linearGradient id="SVGID_4_" gradientUnits="userSpaceOnUse" x1="-258.7315" y1="191.5518" x2="-281.7127" y2="191.3074" gradientTransform="matrix(1 0 0 1 -15.0527 8)">
		<stop  offset="0" style="stop-color:#FBDBBE"/>
		<stop  offset="0.6772" style="stop-color:#FBDBBE"/>
		<stop  offset="1" style="stop-color:#FACFAF"/>
	</linearGradient>
	<path class="st25" d="M-277,178.8c0,0-10.1-3.5-16.6,2.9c-6.2,6.1-4.2,26.1,5.7,31.5s19,8.1,19,8.1L-277,178.8z"/>
	<path class="st26" d="M-275,188.6c0,0-5.3-1.8-8.8,1.5c-3.3,3.2-2.2,13.8,3,16.6c5.2,2.8,10,4.3,10,4.3L-275,188.6z"/>
	<path class="st27" d="M-207.5,229c0,0,12.1,6.6,25.1,5.9c0,0-7.9,2.5-15.1,0.1C-204,232.8-207.5,229-207.5,229z"/>
	<polygon class="st28" points="-180.1,86.5 -140.1,99.6 -169.6,97.3 -175.4,110.1 -188.6,102.5 -189.1,114.4 -202.1,109.7 
		-203.4,119.8 -205.8,129.8 -218.1,107.1 -209.5,111.8 -210.6,97.8 -193.4,102.3 -198.6,91.2 -181,102.3 	"/>
	<path class="st29" d="M-229.1,130c-8.8-1.7-9.8,8.4-9.8,8.4s-7.2-2.2-11.2-1s-0.7,15.5-0.7,15.5l0,0c0.6-5,1.2-9.7,2.2-10.1
		c2-0.7,10.8-0.7,10.8-0.7c0.7-0.5,6.1-8.3,12-5.6c5.9,2.7,45.7,30.1,78.5,24.9c32.1-5,59.2-23.2,68.8-29.9
		C-147,172.2-220.3,131.7-229.1,130z"/>
</g>
<g>
	<path class="st1" d="M-264.6,330.2c-0.3-3.4-5-9.3-4.8-12.5c0.1-1,0.9-1.6,1.2-2.6c1.2-3.6,2-7.7,3.4-11.8
		c3.7-10.5,8.2-22.8,14.6-30.2c5.8-4.3,8.9,6.1,9.7,11c-3.3,6.8-1.1,7.8-2.7,15.1c-1-1.2-1.8-2.5-2.6-3.8c-0.2,1.8,0.7,4.5,1.7,6
		c-2.6,1.2-5.3,2.2-7.7,3.6c3.4,0.1,7.5-1.1,9.8-2.9c1,0.3,1.3,1.2,2.4,1.4c0,0.2,0.2,0.2,0.2,0.5c5.6,5.6,10.6,11.7,18.2,15.1
		c-0.6,2.1-1.7,3.6-2.2,5.8c0.2,1.1,1.5,1.1,2.2,1.7c-7.1,1.8-15.6,3.4-22.8,5.8c-2.2,0.7-5.3,1.6-6.7,2.6c0,0-1.1,0.5,0,0.5
		c-3.9,1.7-7.5-1.9-11.3-2.6C-262.8,331.9-263.6,331-264.6,330.2z"/>
	<path class="st30" d="M-239.4,304c6.2,4,11.3,9,17.5,13c0.2,0.7,1.1,0.8,1.4,1.4c0.8-0.8,1.2-2,1.9-2.9c0.5-0.1,0.5-0.6,0.7-1
		c-1,2.6-2.4,6.8-3.8,9.8c23.7,4.9,48.4,8.9,72.5,13.4c-1.2,0.7-2.8-0.2-4.3,0c-18.8-1.8-37-5.6-55.2-8.9c-2.6-0.5-5.4-1.5-7.7-1.4
		c-2.7,0.1-5.8,1.3-8.6,1.9c-8.6,2-16.9,4-25.7,6c-1.1,0,0-0.5,0-0.5c1.5-1.1,4.5-1.9,6.7-2.6c7.2-2.4,15.7-3.9,22.8-5.8
		c-0.7-0.6-2-0.6-2.2-1.7c0.4-2.2,1.6-3.7,2.2-5.8C-228.9,315.7-233.9,309.6-239.4,304z"/>
	<path class="st31" d="M-262,332.8c-1-0.8-1.9-1.7-2.6-2.6C-263.6,331-262.8,331.9-262,332.8z"/>
	<path class="st1" d="M-190.5,296.1c4.6,2,9.5,3.8,13.9,6c-0.4,0.1-0.4-0.2-0.7-0.2c5.4,4.3,16,3.7,25,3.4c-2.1-0.6-4.3-1-6.7-1.2
		c0.9-1.3,2.5-1.8,3.6-2.9c-0.9-0.4-2.4,0.4-3.1,1c0.1-1.1,1.2-3.3,2.4-4.1c0.3-4.5-0.1-9.2-0.7-13.9c-0.6,1.7-0.2,4.5-0.7,6.2
		c-0.1-0.6,0.3-1.7-0.2-1.9c-0.1-3.8-0.1-17.8-3.1-25.6c8,0.4,11.1,3.5,21.8,18.6c2.1,13.5,6.5,24.5,10.6,36
		c-1.5,4.9-3.2,9.6-5.3,13.9c-6.1,2.3-12.1,7.8-19.7,6.7v-0.2c1.5-0.2,3.1,0.7,4.3,0c-24.1-4.6-48.8-8.5-72.5-13.4
		c1.4-3,2.9-7.2,3.8-9.8c-0.2,0.3-0.2,0.9-0.7,1c3.7-6.8,6.6-14.6,10.1-21.6c1.1-1,6.6-2.2,8.6-1.9"/>
	<path class="st32" d="M-237.3,287c-1.6,5-4,9.3-4.8,15.1c-2.3,1.8-6.4,3-9.8,2.9c2.4-1.4,5.1-2.4,7.7-3.6c-0.9-1.5-1.9-4.2-1.7-6
		c0.9,1.3,1.7,2.6,2.6,3.8c1.6-7.3,4.6-13.1,8.4-18.2C-235.6,283-236.6,284.8-237.3,287z"/>
	<path class="st1" d="M-162.9,304c1-1.1,1.9-2.3,2.9-3.4C-161,301.8-161.1,303.7-162.9,304z"/>
	
		<linearGradient id="SVGID_5_" gradientUnits="userSpaceOnUse" x1="-239.6261" y1="297.2774" x2="-217.9751" y2="297.2774" gradientTransform="matrix(1 0 0 1 0 8)">
		<stop  offset="0" style="stop-color:#FBDBBE"/>
		<stop  offset="0.746" style="stop-color:#FBDBBE"/>
		<stop  offset="1" style="stop-color:#F9CDAE"/>
	</linearGradient>
	<path class="st33" d="M-220.9,293.7c1.6-0.2,2.7,0.2,2.9,0.1c0.3,2.6-2.8,5.4-3.6,9c-1,4-1.2,10.9-0.2,14.2c-6.2-4-11.3-9-17.5-13
		c0-0.2-0.2-0.3-0.2-0.5C-235.3,297.8-230.1,294.7-220.9,293.7z"/>
	<path class="st34" d="M-216.9,291.1c3,0.8,6.1,1.4,8.4,2.9c-3.5,7-6.4,14.8-10.1,21.6c-0.7,0.9-1.1,2.1-1.9,2.9
		c-0.3-0.7-1.2-0.7-1.4-1.4c-0.9-3.3-1.2-10.4-0.2-14.4"/>
	<path class="st32" d="M-176.6,302.1c0.9,0,1.4,0.4,2.2,0.5c3.7,0.6,7.4,1.2,11.5,1.4c1.7-0.3,1.9-2.2,2.9-3.4
		c1.1-2.4,2.4-4.6,2.2-8.4c0.5-0.2,0.1-1.3,0.2-1.9c0.5-1.8-1.8-14.3-1.2-16.1c0.6,4.7,4.4,18.5,2.7,23.8c-1.2,0.8-2.3,3-2.4,4.1
		c0.7-0.5,14.3-2.7,15.1-2.3c-1.1,1.1-14.7,3-15.6,4.2c2.4,0.2,13.6,1.7,15.6,2.2c-8.9,0.3-28.4-0.1-33.9-4.4
		C-177,301.9-176.9,302.2-176.6,302.1z"/>
	<path class="st34" d="M-174.4,302.6c-0.8-0.1-1.3-0.5-2.2-0.5c-4.4-2.2-9.3-4-13.9-6c1.7-2.9,5.5-3.6,8.6-5
		C-178.4,294-177.1,299-174.4,302.6z"/>
</g>
<g>
	<path class="st35" d="M-174.6,302.5c-3.2-1.8-3.4-6.5-5.8-9.1c0.8-4.5,6.5-4.9,11.3-7.4c2.2-1.2,5.1-6.4,6.7-7
		c4.1-1.4,5.9,4.2,3.4,7.2c5.1-0.9,14.3,0.4,11.5,6.5c2.8,0.8,3.6,5.3-0.2,5.5c-1.5-2.9-5.4-3.6-9.1-4.3c-0.2-0.5-1.3-0.1-1.9-0.2
		c0.3,0.3,0.8,0.5,1.4,0.5c3.4,1.2,6.7,2.6,9.6,4.3c1.8,2.5-0.3,5.5-3.8,4.8c-0.3,3-4.8,4-7.2,2.2c0.6-0.4-2-1.6-2.4-2.6
		c-5.4-0.5-10.4-1.5-14.9-2.9C-176.1,301.2-175.4,301.8-174.6,302.5z M-159.4,286.4c-1-1.3-3.3,0.2-4.1,0.7
		C-161.9,287.1-160.9,286.4-159.4,286.4z M-157.5,289.5c3.6,0.5,6.2,2.1,9.6,2.9c-1.3-2.3-4.5-2.8-7.9-3.1c-0.6-0.4-2.8-0.4-3.4,0
		C-158.4,289.1-158.3,289.7-157.5,289.5z M-161.3,298.1c0.4,0.1,1.6,0.6,1.9,0C-159.8,298.1-161,297.5-161.3,298.1z M-159.4,298.6
		c2.8,1.2,4.9,2.9,7.4,4.3C-152.8,300.1-156.5,298.7-159.4,298.6z"/>
	<path class="st36" d="M-157,293.8c3.8,0.7,7.6,1.4,9.1,4.3c0,0.1,0,0.2,0,0.2c-2.9-1.7-6.2-3.1-9.6-4.3
		C-157.4,293.8-157.1,293.9-157,293.8z"/>
	<path class="st36" d="M-151.9,302.9c-2.5-1.4-4.7-3.2-7.4-4.3C-156.5,298.7-152.8,300.1-151.9,302.9z"/>
	<path class="st36" d="M-159.4,298.1c-0.3,0.6-1.5,0.1-1.9,0C-161,297.5-159.8,298.1-159.4,298.1z"/>
	<path class="st36" d="M-163.5,287.1c0.8-0.5,3.1-2,4.1-0.7C-160.9,286.4-161.9,287.1-163.5,287.1z"/>
	<path class="st36" d="M-155.8,289.3c-0.5,0.1-1.6-0.3-1.7,0.2c-0.8,0.2-0.9-0.4-1.7-0.2C-158.6,288.9-156.3,288.9-155.8,289.3z"/>
	<path class="st36" d="M-155.8,289.3c3.4,0.3,6.6,0.8,7.9,3.1c-3.4-0.7-6-2.3-9.6-2.9C-157.4,289-156.3,289.4-155.8,289.3z"/>
	<path class="st36" d="M-157.5,294.1c-0.6,0-1.1-0.1-1.4-0.5c0.6,0.1,1.7-0.3,1.9,0.2C-157.1,293.9-157.4,293.8-157.5,294.1z"/>
	<path class="st37" d="M-158.9,305.3c-4.8-1.4-10.8-1.6-15.8-2.9c-0.7-0.7-1.5-1.2-1.4-2.6c4.5,1.4,9.5,2.4,14.9,2.9
		C-160.9,303.7-158.3,304.9-158.9,305.3z"/>
</g>
<path class="st38" d="M-246.4,235.4c2.6,1.6,7.3,1.6,16.8,1.6c7.4,0,8.4-0.4,9.3-1.2c3.6-3.1,0.6-8.6,4.4-12.3
	c1.7-1.6,4.5-1.9,10.3-2.4c3.2-0.3,7-0.1,14.4,0.4c6.3,0.4,8.8,0.6,11.8,2.1c1.8,0.9,3.9,2,4.9,4.3c0.9,2.2-0.2,3.3,0.3,6.8
	c0.2,1.9,0.6,5.2,2.9,6.9c1.9,1.5,4.4,1.2,9.4,0.5c3.2-0.5,5.9-1.2,7.8-1.8c1.8-0.5,4.9-1.5,8-3.9c2.6-2,4.2-4.2,5.1-5.8
	c1.2-1.9,2.4-3.8,3.6-5.6c-1.3,5.4-2.9,9.6-4.1,12.5c-1.6,3.6-3,6-3.6,7c-0.7,1.1-1.6,2.6-2.9,4.2c-1.2,1.5-2.4,3-4.3,4.6
	c-1.8,1.5-3.3,2.3-5.8,3.5c-1.5,0.7-3.2,1.6-5.5,2.4c-2.5,0.8-4.7,1.3-6.4,1.5c-1.2,0.1-2.4,0.3-3.6,0.4c-4.1,0.2-8.3,0.4-12.4,0.6
	c-4.1,0.1-7.5,0.1-10.1,0c-2.5-0.1-3.9-0.2-7.5-0.5c-4-0.2-7.4-0.4-9.9-0.5c-1.1-0.1-2.6-0.2-4.6-0.3c-1.9-0.1-3.2,0-3.7,0
	c-7.7,0.2-13.9-1.2-13.9-1.2c-1.4-0.3-4.6-1.1-8.5-2.8c-3.6-1.6-6.2-3.2-6.9-3.6c-5.1-3.3-8.1-6.7-8.8-7.5c-1.5-1.8-2.7-3.4-3.4-4.6
	c-1.3-1.8-2.7-4.1-4.1-6.8c-1.4-2.7-2.2-4.9-2.9-6.5c-0.8-2.1-1.7-4.7-2.5-7.6c0.9-2.1,1.9-5.4,1.8-9.3c-0.1-2-0.5-3.2-1.1-6.5
	c-0.5-2.3-1.1-5.6-1.6-9.8c8.4,3.1,11.7,7.1,13.3,10.4c1,2.1,0.7,2.8,2.8,9.5c1.4,4.6,2.3,7.4,3.9,10.6
	C-251.3,230-249.6,233.2-246.4,235.4z"/>
<path class="st15" d="M-271.6,215.9"/>
</svg>
