<?xml version="1.0" encoding="utf-8"?>
<!-- Generator: Adobe Illustrator 19.1.0, SVG Export Plug-In . SVG Version: 6.00 Build 0)  -->
<svg version="1.1" id="Layer_1" xmlns="http://www.w3.org/2000/svg" xmlns:xlink="http://www.w3.org/1999/xlink" x="0px" y="0px"
	 viewBox="-344 78 270.7 406" style="enable-background:new -344 78 270.7 406;" xml:space="preserve">
<style type="text/css">
	.st0{opacity:0.13;fill:url(#SVGID_1_);enable-background:new    ;}
	.st1{fill:#3E3A39;}
	.st2{fill:#352F2D;}
	.st3{fill:#322B29;}
	.st4{fill:#FFFFFF;}
	.st5{fill:#C7C8C8;}
	.st6{fill:#2B2625;}
	.st7{fill:url(#SVGID_2_);}
	.st8{fill:#413D3C;}
	.st9{fill:#5E5D5C;}
	.st10{fill:#39A6DF;}
	.st11{fill:#78B3E2;}
	.st12{fill:#0095DB;}
	.st13{fill:#F2F2F3;}
	.st14{fill:url(#SVGID_3_);}
	.st15{fill:#B7AB53;}
	.st16{fill:#716836;}
	.st17{fill:#E9AA8C;}
	.st18{fill:#ABA26D;}
	.st19{fill:#EAE3E6;}
	.st20{fill:#30AAD6;}
	.st21{fill:#196985;}
	.st22{opacity:0.6;fill:#FFFFFF;enable-background:new    ;}
	.st23{fill:#EFC19E;}
	.st24{fill:#452C24;}
	.st25{fill:url(#SVGID_4_);}
	.st26{fill:#EFBE99;}
	.st27{fill:#ED6D26;}
	.st28{fill:#DBCC83;}
	.st29{fill:#968B48;}
	.st30{opacity:0.55;fill:#33302F;enable-background:new    ;}
	.st31{fill:#918E8D;}
	.st32{fill:#33302F;}
	.st33{fill:url(#SVGID_5_);}
	.st34{fill:#F1F1F2;}
	.st35{fill:#FBDBBE;}
	.st36{fill:#F6BC96;}
	.st37{fill:#FAD1B0;}
	.st38{opacity:0.51;fill:#B7AB53;enable-background:new    ;}
</style>
<radialGradient id="SVGID_1_" cx="-3012.0913" cy="-32777.4922" r="121.5729" gradientTransform="matrix(-1 0 0 -0.2165 -3908.6914 -6490.2271)" gradientUnits="userSpaceOnUse">
	<stop  offset="0" style="stop-color:#000000"/>
	<stop  offset="0.1205" style="stop-color:#040404"/>
	<stop  offset="0.2454" style="stop-color:#111111"/>
	<stop  offset="0.3724" style="stop-color:#252525"/>
	<stop  offset="0.5008" style="stop-color:#434343"/>
	<stop  offset="0.6304" style="stop-color:#686868"/>
	<stop  offset="0.761" style="stop-color:#969696"/>
	<stop  offset="0.8898" style="stop-color:#CBCBCB"/>
	<stop  offset="1" style="stop-color:#FFFFFF"/>
</radialGradient>
<ellipse class="st0" cx="-896.6" cy="606.1" rx="135.4" ry="33.8"/>
<g>
	<path class="st1" d="M-878.1,598.6l-1.2,2.1c0,0-20.7-1.3-22.7,6.8s5.5,8.5,9.3,9.5s20.4,0,24.5-1.4c4-1.4,7.7-3.6,7.7-3.6
		s7.5,1,9.2-0.6c0,0,2.1-3.6,0.9-10.9c-0.3-1.8-0.3-1.8-0.3-1.8s-6.8,4.3-10.5,3.7C-864.8,601.9-859.8,602.7-878.1,598.6z"/>
	<path class="st2" d="M-861.9,608c-0.5,0.5-8.6,6.1-22.1,5.4c-10.9-0.5-14.6-6.7-15.8-9.1c-0.9,0.8-1.9,2.1-2.2,3.2
		c-2,8.1,5.5,8.5,9.3,9.5s20.4,0,24.5-1.4c4-1.4,7.7-3.6,7.7-3.6s7.5,1,9.2-0.6c0,0,1.1-3,1.2-6.6
		C-852.6,607.8-861.4,607.5-861.9,608z"/>
	<path class="st3" d="M-850.4,600.5c-0.3-1.8-0.3-1.8-0.3-1.8s-6.8,4.3-10.5,3.7c-3.5-0.5,1.5,0.3-16.9-3.7l-1.2,2.1
		c0,0-1.2-0.1-3-0.1c2,2,7.5,6.7,13.4,6.4c7.5-0.3,7.6-1,8.3-1c0.6,0,10.5,2.9,10.4-1.9C-850.1,603.2-850.2,601.6-850.4,600.5z"/>
	<path class="st2" d="M-853.6,504.5c-14.4-0.2-33.4,3.4-33.4,3.4l-0.7,44.1c0,0,3.3,10.2,6.7,16.2c0.8,1.4,0.5,5.8,1.3,7.4
		c0.8,1.6,2.6,8.5,1.8,10.1s-4.2,12.7-4.2,12.7s21.4,9.4,31.9,2c5.5-3.8,5.7-5.9,5.7-5.9l-3.6-11.9c0,0-0.8-35.4-0.7-36.8
		L-853.6,504.5z"/>
</g>
<g>
	<path class="st1" d="M-915.2,587.9l-1.2,2.1c0,0-20.7-1.3-22.7,6.8s5.5,8.5,9.3,9.5s20.4,0,24.5-1.4c4-1.4,7.7-3.6,7.7-3.6
		s7.5,1,9.2-0.6c0,0,2.1-3.6,0.9-10.9c-0.3-1.8-0.3-1.8-0.3-1.8s-6.8,4.3-10.5,3.7C-901.8,591.1-896.8,591.9-915.2,587.9z"/>
	<path class="st2" d="M-898.9,597.3c-0.5,0.5-8.6,6.1-22.1,5.4c-10.9-0.5-14.6-6.7-15.8-9.1c-0.9,0.8-1.9,2.1-2.2,3.2
		c-2,8.1,5.5,8.5,9.3,9.5s20.4,0,24.5-1.4c4-1.4,7.7-3.6,7.7-3.6s7.5,1,9.2-0.6c0,0,1.1-3,1.2-6.6
		C-889.7,597.1-898.5,596.8-898.9,597.3z"/>
	<path class="st3" d="M-887.5,589.7c-0.3-1.8-0.3-1.8-0.3-1.8s-6.8,4.3-10.5,3.7c-3.5-0.5,1.5,0.3-16.9-3.7l-1.2,2.1
		c0,0-1.2-0.1-3-0.1c2,2,7.5,6.7,13.4,6.4c7.5-0.3,7.6-1,8.3-1c0.6,0,10.5,2.9,10.4-1.9C-887.1,592.5-887.3,590.9-887.5,589.7z"/>
	<path class="st2" d="M-890.7,493.8c-14.4-0.2-33.4,3.4-33.4,3.4l-0.7,44.1c0,0,3.3,10.2,6.7,16.2c0.8,1.4,0.5,5.8,1.3,7.4
		c0.8,1.6,2.6,8.5,1.8,10.1s-4.2,12.7-4.2,12.7s21.4,9.4,31.9,2c5.5-3.8,5.7-5.9,5.7-5.9l-3.6-11.9c0,0-0.8-35.4-0.7-36.8
		L-890.7,493.8z"/>
</g>
<path class="st4" d="M-904.4,422.5c0,0-9.3,17.4-9.6,32.4s1.8,65.4-1.8,68.4s15.9,7.6,26.8,9.4c10.9,1.8,24,0.8,25.3,0
	c0,0-9.9-79.5-6.8-88.2c3-8.6,2.3-29.9,2.3-29.9S-881.4,440.4-904.4,422.5z"/>
<path class="st5" d="M-894.2,449.3c0,0,0.7,40.4,6.6,55.6l2.6,2.8c0,0-7.2,1.2-7.2-59L-894.2,449.3z"/>
<path class="st2" d="M-889.5,501c-18.1-0.5-38.9-8.1-38.9-8.1s-9.9,38,37.4,41.7c47.2,3.7,47.7-9.1,49.4-36.8
	C-841.6,497.8-871.5,501.5-889.5,501z"/>
<path class="st6" d="M-904.5,434.2c0,0-4.7,41.1-5.1,45.9c-1.8,20.6,1.6,41.7,2,48.4c0.4,6.7,2.1,12.2,3,12.4l-4.6-1
	c0,0-4.2-27.3-0.6-65.9C-908.6,460.1-906,446.2-904.5,434.2z"/>
<path class="st6" d="M-876.2,499.5c0.1,0.4,2,31.3,2.1,34.9c0.2,3.6,1.4,7.1,1.4,7.1l3.5-0.4L-876.2,499.5z"/>
<linearGradient id="SVGID_2_" gradientUnits="userSpaceOnUse" x1="-1229.8365" y1="156.0875" x2="-1228.8879" y2="150.0797" gradientTransform="matrix(1 0 0 -1 341.127 568)">
	<stop  offset="0.2381" style="stop-color:#F7BFA2"/>
	<stop  offset="1" style="stop-color:#FAD3B1"/>
</linearGradient>
<path class="st7" d="M-903.8,409.7c0,0,26.2,1.2,29.6,0c0,0-2,20.8-16,20.4C-902.6,429.9-903.8,409.7-903.8,409.7z"/>
<path class="st1" d="M-863.2,414.2c0,0,16.1,4.2,16.3,6c0.1,1.8,15.8,85.8,15.8,85.8l7.7,12.9c0,0-0.8,6-5.6,8.8
	c-14.9,8.6-33,17.6-41.8,14.6c0,0-6.8-29.1-5.1-56.3C-874.3,458.7-863.2,414.2-863.2,414.2z"/>
<polygon class="st2" points="-856.2,486.2 -837.8,503.1 -837.7,505.5 "/>
<path class="st8" d="M-856.4,486.4l-3.2,4.8c0,0,20.2,18.4,20.9,21.5c0.3-0.1,2.6-5.6,2.6-5.6L-856.4,486.4z"/>
<path class="st2" d="M-931.2,489.9c0,0-1.9-2.2-4.5-2.5V487c0,0,3.4,0.1,4.5,3"/>
<path class="st2" d="M-927.5,422.3c0,0-1.4,2.7-2.1,14.5c-0.3,4.8-0.8,6.9-0.8,6.9s1.6-3.2,1.8-8.9c0.2-5.7,0.8-10.3,1.7-10.8
	L-927.5,422.3z"/>
<path class="st1" d="M-904.7,430.5l-7-15.7c0,0-12.3,1.1-15.9,7.5l0,0c0,0-12.6,4.6-14.3,15.4s6.2,64.9,6.2,64.9l-4.3,9.9
	c0,0-5.2,9.5-5,11c0.3,1.4,27.1,19.1,37.6,18.2C-907.4,541.5-914.2,500.4-904.7,430.5z"/>
<g>
	<path class="st2" d="M-852.1,420.2c0.3,0,3.9,1.7,3.9,1.7s-27.3,61.9-27.8,72.7l0.4-13.3L-852.1,420.2z"/>
	<path class="st9" d="M-869.4,411.1c-4.5,10.8-6.1,68.3-6.5,74.8c1.3-11.5,27.1-70.2,27.1-70.2L-869.4,411.1z"/>
	<path class="st2" d="M-926.8,421.9c0,0-1.7,4.6-1.7,5.1c0.2,2.4,17.7,56.3,18.2,63.3l1-15L-926.8,421.9z"/>
	<path class="st9" d="M-907.9,409.7l-21.2,8.3c0,0,19.8,53.5,19.2,66.7c0,0,3.8-50.5,7.9-61.1L-907.9,409.7z"/>
	<path class="st5" d="M-907.9,425.3c0,0,2.3,11.8,5.1,11.4s7.4-7.9,8.3-8.8c0,0-13.7-13-17.4-15.3
		C-912.4,412.4-907.6,425.8-907.9,425.3z"/>
	<path class="st5" d="M-884.4,429.9c0.2,0.1,5,8.4,8,7.8s10.2-22.5,10-23.6s-2-1.3-2-1.3s-7,21.5-9.2,20.6c-2.3-0.8-5.8-4.5-5.8-4.5
		L-884.4,429.9z"/>
	<g>
		<path class="st10" d="M-892.3,425.3c0,0,2.4,0.8,6,0l3.9,4.3c0,0-4.4,5.1-5.4,6c-0.8,0.8-1.7,0.6-2.6,0c-0.9-0.6-5.6-6.7-5.6-6.7
			L-892.3,425.3z"/>
		<path class="st11" d="M-885.4,426.3c0,0,2.8,2.9,2.8,3.2s-3.7,4.1-4.1,4.5C-887.2,434.4-885.4,426.3-885.4,426.3z"/>
		<path class="st10" d="M-890.7,435.1c0,0-3,7-5.2,12.8c-2.1,5.5-6.4,22.1-6.8,22.5c-0.4,0.4-4.1,5.3-5.3,5.1c0,0,3,5.8,5.7,10.8
			c0.6,1.2,1.8,1,2.9,0c1.2-1,7.1-6.6,8.6-9.9c0,0,2.5-28.2,2.6-41.2C-888,435.1-888.9,436-890.7,435.1z"/>
		<path class="st12" d="M-901.2,465.7c0,0-1.4,4.6-2.6,6s-2.9,3.9-4.2,3.7c0,0,6.7,7.3,7.1,3.7C-900.7,477.4-901.3,466-901.2,465.7z
			"/>
		<path class="st12" d="M-890.7,435.1c0,0,1.2,0.9,1.9,0.5s0.8,0.1,0.8,0.1s-1.1,1-2,1.1c-1,0.1-1.2-0.4-1.2-0.4L-890.7,435.1z"/>
	</g>
	<polygon class="st13" points="-874.5,407.3 -886.4,422.3 -889.9,425.3 -893.4,422.3 -893.4,422.3 -904.2,407.3 -912.3,412.2 
		-902.6,436 -891.9,425.3 -889.8,428.1 -887.4,425.3 -877.2,436.4 -869.1,418 -867.5,412.2 	"/>
</g>
<path class="st8" d="M-936.2,493.5c0,0,4.5-4.2,5.2-3.5c0,0-2.5-2.7-4.6-2.6l-1.2,4.9L-936.2,493.5z"/>
<path class="st4" d="M-875.7,452.7c0,6.1-1.2,13-2.9,18.2c-0.4-1-5.1,1.2-6.5,1.2c-3.6,0-2-17.6-2.2-18.5
	C-886.1,450.2-878.4,451.9-875.7,452.7z"/>
<g>
	
		<linearGradient id="SVGID_3_" gradientUnits="userSpaceOnUse" x1="-878.3474" y1="278.518" x2="-878.3474" y2="159.2296" gradientTransform="matrix(1 0 0 -1 -15.0527 568)">
		<stop  offset="0" style="stop-color:#FBDBBE"/>
		<stop  offset="0.746" style="stop-color:#FBDBBE"/>
		<stop  offset="1" style="stop-color:#F9CDAE"/>
	</linearGradient>
	<path class="st14" d="M-962.7,363.7c2,19.7,13.1,51.4,48.6,52.5c36.2,1.2,23.3,2.3,48.6,1.1c25.8-1.2,38.1-12.4,45.1-62
		c0,0,6.8-39.1,7.8-54.1c0,0-15.6-31.8-94.2-31.9c-57.6-0.2-67.4,27.7-67.4,27.7S-964.3,348.2-962.7,363.7z"/>
	<path class="st15" d="M-820.7,309.3c0,0-2.4,18.4,0.8,20.3c3.2,2,2.7,2.2,2.7,2.2l-3.8,26l4.9-3l9.7-50.6L-820.7,309.3z"/>
	<path class="st16" d="M-821.1,279.5c0,0,17.9,5.7,29.3-3.2c0,0-2.3,10.1-7.8,10.6C-799.5,286.8-816.7,287.9-821.1,279.5z"/>
	<path class="st17" d="M-874.1,368.6c0.2,0.2,7.3,3.4,7.3,3.4s-2.1,4.4-5.3,4.4c0,0,3.8-2.9,2.4-3.9
		C-871,371.6-874.1,368.6-874.1,368.6z"/>
	<path class="st18" d="M-895.2,329.6l1.1-5.4c0,0-11.1-11.4-26.1-2.6c0,0,1.2,8.3,2.1,8c1.9-0.6,8.7-4.5,16.1-2.9
		C-897,327.7-895.2,329.6-895.2,329.6z"/>
	<path class="st4" d="M-922.4,363.8c0,0-1.5-21.8,9-24.4c9.3-2.4,18.3,0,19.9,7.8s1,16.6,1,16.6S-912.5,368.4-922.4,363.8z"/>
	<path class="st19" d="M-920.1,346.1c0,0,7.8-7.6,14.2-6.6c5.4,0.8,9.8,4.5,12.6,8.6c0,0,0-2-1.8-4.7s-7.9-6.2-14.4-5.6
		C-916,338.5-919.7,345.1-920.1,346.1z"/>
	<g>
		<path class="st20" d="M-906.1,338.5c0,0,5.2,0.4,6,6.4c0.9,7.3,1,20.8-3.8,20.9c-5.1,0.1-11.7,1.4-13-0.6
			c-3.3-4.8,0.1-22.4,0.8-23C-915.5,341.7-912.6,338.6-906.1,338.5z"/>
		<ellipse class="st21" cx="-908.8" cy="352.2" rx="4.5" ry="8.8"/>
		<path class="st4" d="M-912.8,339.9c0,0,3.3,6.5,2.3,7.3c-1,0.7-5.7-5-5.7-5s0.7-0.7,1.4-1.2C-913.7,340.3-912.8,339.9-912.8,339.9
			z"/>
		<path class="st22" d="M-901.5,364.1c0,0-2.8-6.8-5.7-4.2c-1.1,1-0.5,5.3,0,5.7c0,0,3.4,0.6,4.3,0
			C-901.9,365-901.5,364.1-901.5,364.1z"/>
	</g>
	<path class="st23" d="M-922.4,363.8c0,0,7.5,2.7,15,2c7.4-0.7,15-2.6,15-2.6s2.5,0.2,2.7,0c0.1-0.1-8.4,4.1-17.7,4.3
		C-916.8,367.7-922.4,363.8-922.4,363.8z"/>
	<path class="st24" d="M-894.4,343.6c-0.2-0.5-0.4-0.9-0.5-1.1c-0.1-0.3-0.2-0.6-0.4-0.9c0-0.1,0-0.1,0-0.1l0,0
		c-1.6-3.4-4.7-6.1-11.6-5.6c-9.9,0.7-13.3,10.2-13.3,10.2s5.3-7.2,13.2-7.4c4.9-0.1,9.9,2.3,11,5.1c0,0,3.2,7.2,3.4,19.2
		C-892.5,363-891.7,350.1-894.4,343.6z"/>
	<path class="st18" d="M-856.2,329.6l-1-5.4c0,0,9.7-11.4,22.9-2.6c0,0-1,8.3-1.9,8c-1.7-0.6-7.6-4.5-14.1-2.9
		C-854.6,327.7-856.2,329.6-856.2,329.6z"/>
	<path class="st4" d="M-858.4,363.8c0,0-1.3-21.8,7.9-24.4c8.1-2.4,16,0,17.4,7.8s0.9,16.6,0.9,16.6S-849.7,368.4-858.4,363.8z"/>
	<path class="st19" d="M-856.4,346.1c0,0,6.8-7.6,12.4-6.6c4.7,0.8,8.6,4.5,11,8.6c0,0,0-2-1.6-4.7s-7-6.2-12.6-5.6
		C-852.7,338.5-856,345.1-856.4,346.1z"/>
	<g>
		<path class="st20" d="M-844.8,338.5c0,0,4.6,0.4,5.2,6.4c0.8,7.3,0.8,20.8-3.3,20.9c-4.5,0.1-10.2,1.3-11.3-0.7
			c-2.8-4.8,0.1-22.3,0.6-22.9C-853,341.7-850.5,338.6-844.8,338.5z"/>
		<ellipse class="st21" cx="-847.1" cy="352.2" rx="3.9" ry="8.8"/>
		<path class="st4" d="M-850.6,339.9c0,0,2.9,6.5,2.1,7.3c-0.9,0.7-5-5-5-5s0.6-0.7,1.2-1.2C-851.4,340.3-850.6,339.9-850.6,339.9z"
			/>
		<path class="st22" d="M-840.7,364.1c0,0-2.5-6.8-5-4.2c-1,1-0.4,5.3,0,5.7c0,0,3,0.6,3.8,0C-841.1,365-840.7,364.1-840.7,364.1z"
			/>
	</g>
	<path class="st23" d="M-858.4,363.8c0,0,6.6,2.7,13.1,2s13.2-2.6,13.2-2.6s2.2,0.2,2.4,0c0.1-0.1-7.4,4.1-15.6,4.3
		C-853.5,367.7-858.4,363.8-858.4,363.8z"/>
	<path class="st24" d="M-833.8,343.6c-0.2-0.5-0.3-0.9-0.4-1.1c-0.1-0.3-0.2-0.6-0.3-0.9c0-0.1,0-0.1,0-0.1l0,0
		c-1.4-3.4-4.1-6.1-10.1-5.6c-8.7,0.7-11.7,10.2-11.7,10.2s4.7-7.2,11.5-7.4c4.3-0.1,8.7,2.3,9.7,5.1c0,0,2.8,7.2,3,19.2
		C-832.2,363-831.5,350.1-833.8,343.6z"/>
	<path class="st15" d="M-804.3,278.9c-12.2-12-25.4-29.3-32.3-34.2c-6.8-4.9-29.8-17.6-50.9-5.9c-21,11.7-33.7,21-33.7,21
		s-4.4-10.5-0.7-15.2c0,0-14.4,8.8-11.2,21.5c0,0-10.5-7.3-17.8-3.9c0,0,10,3.7,10.3,6.8c0,0-18.6,9-25.2,9s-14.2,20.3-14.4,21.5
		c0,0,0,0.1,0,0.2l3.8,36c0,0,4.6-0.2,9.1,0.6c3.7,10.2,6.8,18.5,6.8,18.5l12.3,5.9l1.4-37c0,0,4.4-0.5,6.1-3.7
		c1.7-3.2,2.2-20.8,4.2-21.5c2-0.7,10.8-0.7,10.8-0.7c0.7-0.5,6.1-8.3,12-5.6s45.7,30.1,78.5,24.9c32.8-5.1,60.4-24,69.4-30.3
		C-766,287-792.1,290.9-804.3,278.9z"/>
	
		<linearGradient id="SVGID_4_" gradientUnits="userSpaceOnUse" x1="-946.6815" y1="212.5039" x2="-969.6627" y2="212.7484" gradientTransform="matrix(1 0 0 -1 -15.0527 568)">
		<stop  offset="0" style="stop-color:#FBDBBE"/>
		<stop  offset="0.6772" style="stop-color:#FBDBBE"/>
		<stop  offset="1" style="stop-color:#FACFAF"/>
	</linearGradient>
	<path class="st25" d="M-964.9,334.7c0,0-10.1-3.5-16.6,2.9c-6.2,6.1-4.2,26.1,5.7,31.5s19,8.1,19,8.1L-964.9,334.7z"/>
	<path class="st26" d="M-962.9,344.5c0,0-5.3-1.8-8.8,1.5c-3.3,3.2-2.2,13.8,3,16.6c5.2,2.8,10,4.3,10,4.3L-962.9,344.5z"/>
	<path class="st27" d="M-895.4,384.9c0,0,12.1,6.6,25.1,5.9c0,0-7.9,2.5-15.1,0.1C-891.9,388.7-895.4,384.9-895.4,384.9z"/>
	<polygon class="st28" points="-868,242.4 -828,255.5 -857.5,253.2 -863.3,266 -876.5,258.4 -877.1,270.3 -890,265.6 -891.3,275.7 
		-893.7,285.7 -906.1,263 -897.4,267.7 -898.5,253.7 -881.3,258.2 -886.5,247.1 -868.9,258.2 	"/>
	<path class="st29" d="M-917,285.9c-8.8-1.7-9.8,8.4-9.8,8.4s-7.2-2.2-11.2-1s-0.7,15.5-0.7,15.5l0,0c0.6-5,1.2-9.7,2.2-10.1
		c2-0.7,10.8-0.7,10.8-0.7c0.7-0.5,6.1-8.3,12-5.6c5.9,2.7,45.7,30.1,78.5,24.9c32.1-5,59.2-23.2,68.8-29.9
		C-834.9,328.1-908.2,287.6-917,285.9z"/>
</g>
<g>
	<path class="st1" d="M-952.5,486.1c-0.3-3.4-5-9.3-4.8-12.5c0.1-1,0.9-1.6,1.2-2.6c1.2-3.6,2-7.7,3.4-11.8
		c3.7-10.5,8.2-22.8,14.6-30.2c5.8-4.3,8.9,6.1,9.7,11c-3.3,6.8-1.1,7.8-2.7,15.1c-1-1.2-1.8-2.5-2.6-3.8c-0.2,1.8,0.7,4.5,1.7,6
		c-2.6,1.2-5.3,2.2-7.7,3.6c3.4,0.1,7.5-1.1,9.8-2.9c1,0.3,1.3,1.2,2.4,1.4c0,0.2,0.2,0.2,0.2,0.5c5.6,5.6,10.6,11.7,18.2,15.1
		c-0.6,2.1-1.7,3.6-2.2,5.8c0.2,1.1,1.5,1.1,2.2,1.7c-7.1,1.8-15.6,3.4-22.8,5.8c-2.2,0.7-5.3,1.6-6.7,2.6c0,0-1.1,0.5,0,0.5
		c-3.9,1.7-7.5-1.9-11.3-2.6C-950.7,487.8-951.6,486.9-952.5,486.1z"/>
	<path class="st30" d="M-927.3,459.9c6.2,4,11.3,9,17.5,13c0.2,0.7,1.1,0.8,1.4,1.4c0.8-0.8,1.2-2,1.9-2.9c0.5-0.1,0.5-0.6,0.7-1
		c-1,2.6-2.4,6.8-3.8,9.8c23.7,4.9,48.4,8.9,72.5,13.4c-1.2,0.7-2.8-0.2-4.3,0c-18.8-1.8-37-5.6-55.2-8.9c-2.6-0.5-5.4-1.5-7.7-1.4
		c-2.7,0.1-5.8,1.3-8.6,1.9c-8.6,2-16.9,4-25.7,6c-1.1,0,0-0.5,0-0.5c1.5-1.1,4.5-1.9,6.7-2.6c7.2-2.4,15.7-3.9,22.8-5.8
		c-0.7-0.6-2-0.6-2.2-1.7c0.4-2.2,1.6-3.7,2.2-5.8C-916.8,471.6-921.8,465.5-927.3,459.9z"/>
	<path class="st31" d="M-949.9,488.7c-1-0.8-1.9-1.7-2.6-2.6C-951.6,486.9-950.7,487.8-949.9,488.7z"/>
	<path class="st1" d="M-878.4,452c4.6,2,9.5,3.8,13.9,6c-0.4,0.1-0.4-0.2-0.7-0.2c5.4,4.3,16,3.7,25,3.4c-2.1-0.6-4.3-1-6.7-1.2
		c0.9-1.3,2.5-1.8,3.6-2.9c-0.9-0.4-2.4,0.4-3.1,1c0.1-1.1,1.2-3.3,2.4-4.1c0.3-4.5-0.1-9.2-0.7-13.9c-0.6,1.7-0.2,4.5-0.7,6.2
		c-0.1-0.6,0.3-1.7-0.2-1.9c-0.1-3.8-0.1-17.8-3.1-25.6c8,0.4,11.1,3.5,21.8,18.6c2.1,13.5,6.5,24.5,10.6,36
		c-1.5,4.9-3.2,9.6-5.3,13.9c-6.1,2.3-12.1,7.8-19.7,6.7v-0.2c1.5-0.2,3.1,0.7,4.3,0c-24.1-4.6-48.8-8.5-72.5-13.4
		c1.4-3,2.9-7.2,3.8-9.8c-0.2,0.3-0.2,0.9-0.7,1c3.7-6.8,6.6-14.6,10.1-21.6c1.1-1,6.6-2.2,8.6-1.9"/>
	<path class="st32" d="M-925.2,442.9c-1.6,5-4,9.3-4.8,15.1c-2.3,1.8-6.4,3-9.8,2.9c2.4-1.4,5.1-2.4,7.7-3.6c-0.9-1.5-1.9-4.2-1.7-6
		c0.9,1.3,1.7,2.6,2.6,3.8c1.6-7.3,4.6-13.1,8.4-18.2C-923.5,438.9-924.5,440.7-925.2,442.9z"/>
	<path class="st1" d="M-850.8,459.9c1-1.1,1.9-2.3,2.9-3.4C-848.9,457.7-849,459.6-850.8,459.9z"/>
	
		<linearGradient id="SVGID_5_" gradientUnits="userSpaceOnUse" x1="-927.5761" y1="106.7784" x2="-905.9251" y2="106.7784" gradientTransform="matrix(1 0 0 -1 0 568)">
		<stop  offset="0" style="stop-color:#FBDBBE"/>
		<stop  offset="0.746" style="stop-color:#FBDBBE"/>
		<stop  offset="1" style="stop-color:#F9CDAE"/>
	</linearGradient>
	<path class="st33" d="M-908.8,449.6c1.6-0.2,2.7,0.2,2.9,0.1c0.3,2.6-2.8,5.4-3.6,9c-1,4-1.2,10.9-0.2,14.2c-6.2-4-11.3-9-17.5-13
		c0-0.2-0.2-0.3-0.2-0.5C-923.2,453.7-918,450.6-908.8,449.6z"/>
	<path class="st34" d="M-904.8,447c3,0.8,6.1,1.4,8.4,2.9c-3.5,7-6.4,14.8-10.1,21.6c-0.7,0.9-1.1,2.1-1.9,2.9
		c-0.3-0.7-1.2-0.7-1.4-1.4c-0.9-3.3-1.2-10.4-0.2-14.4"/>
	<path class="st32" d="M-864.5,458c0.9,0,1.4,0.4,2.2,0.5c3.7,0.6,7.4,1.2,11.5,1.4c1.7-0.3,1.9-2.2,2.9-3.4
		c1.1-2.4,2.4-4.6,2.2-8.4c0.5-0.2,0.1-1.3,0.2-1.9c0.5-1.8-1.8-14.3-1.2-16.1c0.6,4.7,4.4,18.5,2.7,23.8c-1.2,0.8-2.3,3-2.4,4.1
		c0.7-0.5,14.3-2.7,15.1-2.3c-1.1,1.1-14.7,3-15.6,4.2c2.4,0.2,13.6,1.7,15.6,2.2c-8.9,0.3-28.4-0.1-33.9-4.4
		C-864.9,457.8-864.8,458.1-864.5,458z"/>
	<path class="st34" d="M-862.3,458.5c-0.8-0.1-1.3-0.5-2.2-0.5c-4.4-2.2-9.3-4-13.9-6c1.7-2.9,5.5-3.6,8.6-5
		C-866.3,449.9-865,454.9-862.3,458.5z"/>
</g>
<g>
	<path class="st35" d="M-862.6,458.4c-3.2-1.8-3.4-6.5-5.8-9.1c0.8-4.5,6.5-4.9,11.3-7.4c2.2-1.2,5.1-6.4,6.7-7
		c4.1-1.4,5.9,4.2,3.4,7.2c5.1-0.9,14.3,0.4,11.5,6.5c2.8,0.8,3.6,5.3-0.2,5.5c-1.5-2.9-5.4-3.6-9.1-4.3c-0.2-0.5-1.3-0.1-1.9-0.2
		c0.3,0.3,0.8,0.5,1.4,0.5c3.4,1.2,6.7,2.6,9.6,4.3c1.8,2.5-0.3,5.5-3.8,4.8c-0.3,3-4.8,4-7.2,2.2c0.6-0.4-2-1.6-2.4-2.6
		c-5.4-0.5-10.4-1.5-14.9-2.9C-864.1,457.1-863.3,457.7-862.6,458.4z M-847.3,442.3c-1-1.3-3.3,0.2-4.1,0.7
		C-849.8,443-848.8,442.3-847.3,442.3z M-845.4,445.4c3.6,0.5,6.2,2.1,9.6,2.9c-1.3-2.3-4.5-2.8-7.9-3.1c-0.6-0.4-2.8-0.4-3.4,0
		C-846.3,445-846.2,445.6-845.4,445.4z M-849.2,454c0.4,0.1,1.6,0.6,1.9,0C-847.7,454-848.9,453.4-849.2,454z M-847.3,454.5
		c2.8,1.2,4.9,2.9,7.4,4.3C-840.7,456-844.4,454.6-847.3,454.5z"/>
	<path class="st36" d="M-844.9,449.7c3.8,0.7,7.6,1.4,9.1,4.3c0,0.1,0,0.2,0,0.2c-2.9-1.7-6.2-3.1-9.6-4.3
		C-845.3,449.7-845.1,449.8-844.9,449.7z"/>
	<path class="st36" d="M-839.8,458.8c-2.5-1.4-4.7-3.2-7.4-4.3C-844.4,454.6-840.7,456-839.8,458.8z"/>
	<path class="st36" d="M-847.3,454c-0.3,0.6-1.5,0.1-1.9,0C-848.9,453.4-847.7,454-847.3,454z"/>
	<path class="st36" d="M-851.4,443c0.8-0.5,3.1-2,4.1-0.7C-848.8,442.3-849.8,443-851.4,443z"/>
	<path class="st36" d="M-843.7,445.2c-0.5,0.1-1.6-0.3-1.7,0.2c-0.8,0.2-0.9-0.4-1.7-0.2C-846.5,444.8-844.2,444.8-843.7,445.2z"/>
	<path class="st36" d="M-843.7,445.2c3.4,0.3,6.6,0.8,7.9,3.1c-3.4-0.7-6-2.3-9.6-2.9C-845.3,444.9-844.2,445.3-843.7,445.2z"/>
	<path class="st36" d="M-845.4,450c-0.6,0-1.1-0.1-1.4-0.5c0.6,0.1,1.7-0.3,1.9,0.2C-845.1,449.8-845.3,449.7-845.4,450z"/>
	<path class="st37" d="M-846.8,461.2c-4.8-1.4-10.8-1.6-15.8-2.9c-0.7-0.7-1.5-1.2-1.4-2.6c4.5,1.4,9.5,2.4,14.9,2.9
		C-848.8,459.6-846.2,460.8-846.8,461.2z"/>
</g>
<path class="st38" d="M-934.3,391.3c2.6,1.6,7.3,1.6,16.8,1.6c7.4,0,8.4-0.4,9.3-1.2c3.6-3.1,0.6-8.6,4.4-12.3
	c1.7-1.6,4.5-1.9,10.3-2.4c3.2-0.3,7-0.1,14.4,0.4c6.3,0.4,8.8,0.6,11.8,2.1c1.8,0.9,3.9,2,4.9,4.3c0.9,2.2-0.2,3.3,0.3,6.8
	c0.2,1.9,0.6,5.2,2.9,6.9c1.9,1.5,4.4,1.2,9.4,0.5c3.2-0.5,5.9-1.2,7.8-1.8c1.8-0.5,4.9-1.5,8-3.9c2.6-2,4.2-4.2,5.1-5.8
	c1.2-1.9,2.4-3.8,3.6-5.6c-1.3,5.4-2.9,9.6-4.1,12.5c-1.6,3.6-3,6-3.6,7c-0.7,1.1-1.6,2.6-2.9,4.2c-1.2,1.5-2.4,3-4.3,4.6
	c-1.8,1.5-3.3,2.3-5.8,3.5c-1.5,0.7-3.2,1.6-5.5,2.4c-2.5,0.8-4.7,1.3-6.4,1.5c-1.2,0.1-2.4,0.3-3.6,0.4c-4.1,0.2-8.3,0.4-12.4,0.6
	c-4.1,0.1-7.5,0.1-10.1,0c-2.5-0.1-3.9-0.2-7.5-0.5c-4-0.2-7.4-0.4-9.9-0.5c-1.1-0.1-2.6-0.2-4.6-0.3c-1.9-0.1-3.2,0-3.7,0
	c-7.7,0.2-13.9-1.2-13.9-1.2c-1.4-0.3-4.6-1.1-8.5-2.8c-3.6-1.6-6.2-3.2-6.9-3.6c-5.1-3.3-8.1-6.7-8.8-7.5c-1.5-1.8-2.7-3.4-3.4-4.6
	c-1.3-1.8-2.7-4.1-4.1-6.8c-1.4-2.7-2.2-4.9-2.9-6.5c-0.8-2.1-1.7-4.7-2.5-7.6c0.9-2.1,1.9-5.4,1.8-9.3c-0.1-2-0.5-3.2-1.1-6.5
	c-0.5-2.3-1.1-5.6-1.6-9.8c8.4,3.1,11.7,7.1,13.3,10.4c1,2.1,0.7,2.8,2.8,9.5c1.4,4.6,2.3,7.4,3.9,10.6
	C-939.2,385.9-937.6,389.1-934.3,391.3z"/>
<path class="st15" d="M-959.6,371.8"/>
</svg>
